<svg xmlns="http://www.w3.org/2000/svg" version="1.1" xmlns:xlink="http://www.w3.org/1999/xlink" xmlns:svgjs="http://svgjs.dev/svgjs" width="100%" height="100%" viewBox="0 0 1000 600"><rect width="1000" height="600" x="0" y="0" fill="#7656f0"/><g><rect width="333.3333333333333" height="333.3333333333333" rx="13.333333333333334" ry="13.333333333333334" y="156.6746188031077" fill="#181524a8" transform="matrix(0.9296972582327387,0,0,0.9296972582327387,0,-0.609497634450392)" x="134.45240783691403"/><path d="M270.7724463888239 387.3648483807707L265.2672356194511 268.3571439712432Q262.88844084256164 267.40562606048746 262.5146302347647 265.8424180642458Q262.1748024094948 264.27921006800415 262.1748024094948 262.61405372418153L262.1748024094948 262.61405372418153Q262.1748024094948 259.75949999191414 262.88844084256164 257.2447740849167Q263.60207927562845 254.73004817791931 265.2672356194511 251.39973549027403L265.2672356194511 251.39973549027403Q272.4376027326465 251.87549444565192 279.37009036815294 251.501683837855Q286.3025780036594 251.16185601258508 293.23506563916584 250.44821757951823Q300.1675532746723 249.7345791464514 307.10004091017873 249.12288906096555Q313.99854576315823 248.5111989754797 321.1689128763536 248.5111989754797L321.1689128763536 248.5111989754797Q323.10593148039214 248.5111989754797 325.5866746048626 248.40925062789873Q328.10140051186005 248.27331949779077 330.6161264188575 248.40925062789873Q333.1308523258549 248.5111989754797 335.64557823285236 249.2248374085465Q338.1603041398498 249.9724586241404 339.82546048367243 251.39973549027403L339.82546048367243 251.39973549027403Q340.06333996136135 251.39973549027403 340.06333996136135 252.11337392334087L340.06333996136135 252.11337392334087L340.06333996136135 253.54065078947457Q340.06333996136135 254.01640974485247 339.82546048367243 254.25428922254142L339.82546048367243 254.25428922254142Q338.1603041398498 254.25428922254142 333.8444907589218 254.73004817791931Q329.5626601605207 255.2058071332972 324.77108782421476 255.5796177410941Q319.9795154879089 255.91944556636403 315.6976848895078 256.3952045217419Q311.3818715085798 256.8709634771198 309.4788356870682 257.1428257373358L309.4788356870682 257.1428257373358Q306.8621614324898 257.6185846927136 301.69677848838694 258.1962919956725Q296.5653783268111 258.80798208115834 291.3320298176543 260.0993278171841Q286.06469852597047 261.4246563357368 281.74888514504244 263.3276921572484Q277.46705454664135 265.26471076128695 276.27765715819663 268.3571439712432L276.27765715819663 268.3571439712432L276.27765715819663 270.73593874813275Q276.27765715819663 272.6729573521713 276.14172602808867 274.91582099895277Q276.0397776805077 277.1926674282613 276.0397776805077 279.09570324977284L276.0397776805077 279.09570324977284L276.0397776805077 281.9842397645672Q276.0397776805077 289.63036583314044 276.14172602808867 295.2375249500942Q276.27765715819663 300.844684067048 276.61748498346657 306.72370544421767Q276.9912955912635 312.56874403886036 277.46705454664135 319.1274210665699Q277.94281350201925 325.6860980942794 278.89433141277505 334.7934838115134L278.89433141277505 334.7934838115134L281.74888514504244 334.7934838115134L334.3202497142997 315.8990567265056L334.3202497142997 323.54518279507886L278.89433141277505 348.6244762999993Q278.6564519350861 350.5614949040379 278.6564519350861 352.22665124786045L278.6564519350861 352.22665124786045L278.6564519350861 357.25610306185536Q278.6564519350861 366.09162651887334 280.2196599313278 374.4513910205135Q281.74888514504244 382.8111555221536 281.74888514504244 391.6466789791717L281.74888514504244 391.6466789791717L281.74888514504244 392.83607636761644Q281.51100566735346 393.07395584530536 280.79736723428664 394.02547375606116L280.79736723428664 394.02547375606116L279.132210890464 395.7246128824107Q278.1806929797082 396.6761307931665 277.3311234165334 397.3897692262334Q276.5155366358856 398.1034076593003 276.27765715819663 398.3412871369892L276.27765715819663 398.3412871369892Q273.6270001210912 397.1518897485445 272.1997232549576 393.2098869754134Q270.7724463888239 389.2678842022822 270.7724463888239 387.3648483807707L270.7724463888239 387.3648483807707Z " fill="#f9f9f9" transform="matrix(0.9296972582327387,0,0,0.9296972582327387,0,-0.609497634450392)"/><path d="M559.7031006222215 387.14472607672246L554.2066065025158 268.3254519581453Q551.8315781791862 267.3754406288135 551.458359442663 265.8147077306254Q551.1190696821873 264.2539748324374 551.1190696821873 262.5914550061067L551.1190696821873 262.5914550061067Q551.1190696821873 259.74142101811105 551.8315781791862 257.23067679059113Q552.544086676185 254.7199325630713 554.2066065025158 251.39489291040977L554.2066065025158 251.39489291040977Q561.3656204485522 251.8698985750757 568.2871315622558 251.49667983855247Q575.2086426759594 251.15739007807682 582.1301537896628 250.4448815810779Q589.0516649033664 249.73237308407906 595.9731760170699 249.12165151522285Q602.8607581547259 248.51092994636664 610.0197721007623 248.51092994636664L610.0197721007623 248.51092994636664Q611.9537237354735 248.51092994636664 614.4305389869459 248.40914301822394Q616.9412832144659 248.2734271140337 619.4520274419857 248.40914301822394Q621.9627716695057 248.51092994636664 624.4735158970255 249.22343844336552Q626.9842601245455 249.969875916412 628.6467799508763 251.39489291040977L628.6467799508763 251.39489291040977Q628.8842827832092 251.39489291040977 628.8842827832092 252.10740140740867L628.8842827832092 252.10740140740867L628.8842827832092 253.53241840140646Q628.8842827832092 254.0074240660724 628.6467799508763 254.24492689840534L628.6467799508763 254.24492689840534Q626.9842601245455 254.24492689840534 622.6752801665045 254.7199325630713Q618.4002291845112 255.1949382277372 613.6162435618043 255.56815696426045Q608.8322579390975 255.9074467247361 604.5572069571041 256.38245238940203Q600.2482269990633 256.85745805406793 598.3482043403995 257.1288898624485L598.3482043403995 257.1288898624485Q595.7356731847369 257.60389552711445 590.5784688255068 258.18068811992305Q585.4551934423243 258.79140968877925 580.2301311309992 260.08071077858676Q574.9711398436264 261.4039408444419 570.6621598855854 263.3039635031056Q566.3871089035921 265.2379151378168 565.1995947419273 268.3254519581453L565.1995947419273 268.3254519581453L565.1995947419273 270.700480281475Q565.1995947419273 272.63443191618626 565.063878837737 274.8737443353257Q564.9620919095943 277.1469857305126 564.9620919095943 279.0470083891763L564.9620919095943 279.0470083891763L564.9620919095943 281.93097135321943Q564.9620919095943 289.5649909639219 565.063878837737 295.16327201177023Q565.1995947419273 300.7615530596187 565.538884502403 306.63126591584773Q565.9121032389261 312.4670497960291 566.3871089035921 319.01534217320943Q566.862114568258 325.5636345503897 567.8121258975899 334.65660013113745L567.8121258975899 334.65660013113745L570.6621598855854 334.65660013113745L623.1502858311704 315.7920894486906L623.1502858311704 323.42610905939296L567.8121258975899 348.46569338249697Q567.5746230652569 350.3996450172082 567.5746230652569 352.062164843539L567.5746230652569 352.062164843539L567.5746230652569 357.0836532985787Q567.5746230652569 365.905187070946 569.135355963445 374.25171517864726Q570.6621598855854 382.59824328634863 570.6621598855854 391.4197770587158L570.6621598855854 391.4197770587158L570.6621598855854 392.6072912203806Q570.4246570532524 392.8447940527136 569.7121485562535 393.7948053820454L569.7121485562535 393.7948053820454L568.0496287299228 395.4912541844237Q567.099617400591 396.44126551375564 566.2513929994019 397.15377401075455Q565.4370975742603 397.86628250775345 565.1995947419273 398.10378534008635L565.1995947419273 398.10378534008635Q562.5531346102172 396.91627117842154 561.1281176162194 392.9805099569039Q559.7031006222215 389.0447487353862 559.7031006222215 387.14472607672246L559.7031006222215 387.14472607672246ZM636.7558052262445 362.07121277757096L636.7558052262445 362.07121277757096Q636.7558052262445 357.32115613091173 636.8575921543872 349.31391778368607Q636.9933080585776 341.340608412508 637.9433193879094 332.14585590361753Q638.8933307172412 322.95110339472706 640.793353375905 313.417061125361Q642.7273050106163 303.8830188559948 646.2898474956106 296.24899924529245Q649.8863189566526 288.61497963459 655.3488841003108 283.83099401188315Q660.8453782200166 279.0470083891763 668.954403495385 279.0470083891763L668.954403495385 279.0470083891763Q680.1848945671294 279.0470083891763 686.9706897766426 285.25601100588096Q693.7564849861559 291.4650136225856 697.4547433753406 300.659766131476Q701.1530017645254 309.82058966431896 702.4762318303805 320.20285633487424Q703.7994618962356 330.5851230054295 703.7994618962356 338.9316511131308L703.7994618962356 338.9316511131308Q703.7994618962356 347.99068771783095 701.1530017645254 358.50867029257654Q698.5404706088628 368.9927238912745 693.043976489157 377.8142576636417Q687.5814113454989 386.63579143600896 679.3366701659403 392.5055042922379Q671.0919289863817 398.34128817241935 659.6578640583517 398.34128817241935L659.6578640583517 398.34128817241935Q652.2613472799823 398.34128817241935 647.7148644896084 394.88053261556763Q643.2023106752821 391.4197770587158 640.9290692800952 386.16078577134306Q638.6558278849083 380.9357234600178 637.7058165555765 374.48921801098027Q636.7558052262445 368.0427125619426 636.7558052262445 362.07121277757096ZM644.8648305016129 359.22117878957545L644.8648305016129 359.22117878957545Q644.8648305016129 363.7337326039018 645.1023333339459 368.6534341307988Q645.3398361662788 373.53920668164835 646.5273503279437 377.8142576636417Q647.7148644896084 382.1232376216826 650.8363302859847 384.73576877734524Q653.9238671063132 387.38222890905547 659.8953668906848 387.38222890905547L659.8953668906848 387.38222890905547Q670.3794204893828 387.38222890905547 677.1991446749436 382.59824328634863Q683.9849398844568 377.8142576636417 688.0564170101649 370.31595395712964Q692.0939651598252 362.78372127456987 693.6546980580132 353.7246846698697Q695.2154309562012 344.66564806516953 695.2154309562012 336.31911995746816L695.2154309562012 336.31911995746816Q695.2154309562012 331.0601286700954 694.3672065550121 322.71360056239416Q693.518982153823 314.3670724546928 690.9064509981603 306.49555001165743Q688.2939198424978 298.62402756862207 683.2724313874579 293.0257465207736Q678.2509429324181 287.3935364968776 670.1419176570497 287.3935364968776L670.1419176570497 287.3935364968776Q664.4418496810587 287.3935364968776 660.2346566511604 291.9400192872515Q656.0613925973097 296.48650207762535 653.2113586093143 303.6455160236618Q650.3613246213187 310.80452996969836 648.8005917231307 319.38856090973263Q647.2398588249426 327.9725918497669 646.2898474956106 335.84411429280226Q645.3398361662788 343.7156367358376 645.1023333339459 350.1621421848753Q644.8648305016129 356.6086476339128 644.8648305016129 359.22117878957545ZM712.1459900039368 306.97055567632333L718.3549926206416 306.97055567632333L732.4015887043339 364.9551757416142L735.285551668377 364.9551757416142Q735.9980601653759 357.32115613091173 738.03379872823 348.73712519087746Q740.0356083150363 340.1191652747956 743.6320797760783 331.67085023895163Q747.1946222610728 323.18860622706006 752.11432378797 315.3170837840247Q757.0000963388194 307.44556134098923 763.1751699794764 301.4740615566176Q769.3841725961812 295.53649074829355 777.1539081110737 291.9400192872515Q784.889714649919 288.377476802257 794.2201830629998 288.377476802257L794.2201830629998 288.377476802257Q794.2201830629998 294.0775447782481 789.5379843684356 298.38652473628906Q784.889714649919 302.6615757182824 778.4432092008814 306.73305284399044Q772.0306327278912 310.80452996969836 765.2109085423305 315.3170837840247Q758.4251133328172 319.86356657439853 754.5911390394423 326.3100720234361L754.5911390394423 326.3100720234361Q750.553590889782 332.72264849642613 748.0428466622619 341.2048925083177Q745.5321024347421 349.68713652020926 743.9713695365541 358.61045722071924Q742.4445656144136 367.5677068972767 741.7320571174147 376.5249565738343Q741.0195486204158 385.44827727434415 740.5445429557498 392.6072912203806L740.5445429557498 392.6072912203806Q739.0855969857045 394.77874568742493 737.5587930635639 396.54305244189834Q735.9980601653759 398.34128817241935 733.6230318420463 398.34128817241935L733.6230318420463 398.34128817241935Q732.6390915366668 398.34128817241935 731.2140745426692 397.73056660356315Q729.7890575486714 397.15377401075455 729.3140518840054 395.25375135209083L729.3140518840054 395.25375135209083L712.1459900039368 306.97055567632333ZM799.9202510389908 293.1275334489163L808.2667791466921 293.1275334489163Q808.7417848113581 296.01149641295945 809.4882222844045 298.38652473628906L809.4882222844045 298.38652473628906Q809.7257251167374 300.7615530596187 810.2007307814034 303.0347944548057Q810.6757364460694 305.3080358499926 811.1507421107352 306.97055567632333L811.1507421107352 306.97055567632333L811.1507421107352 309.34558399965294Q811.3882449430683 310.80452996969836 811.6257477754012 313.5188480535037Q811.8632506077341 316.2670951133565 812.4400432005428 319.2528450055423Q813.050764769399 322.23859489772815 813.4239835059221 325.0886288857238Q813.763273266398 327.9725918497669 814.0007760987309 328.9226031790987L814.0007760987309 328.9226031790987Q814.7132845957298 324.37612038872487 816.5115203262507 319.01534217320943Q818.3097560567718 313.6545639576939 821.0580031166247 309.24379707151024Q823.7723212004299 304.8330301853267 827.7080824219476 301.6097774608079Q831.6438436434654 298.38652473628906 837.615343427837 298.38652473628906L837.615343427837 298.38652473628906L838.8028575895017 298.38652473628906Q844.7743573738734 303.4080131913289 849.185124260057 308.87057833498704Q853.5958911462407 314.3670724546928 856.9548597749498 320.57607507139744Q860.2798994276112 326.7850776881021 863.1638623916543 333.70658880180554Q866.01389637965 340.5941709394615 869.1014331999785 348.46569338249697L869.1014331999785 348.46569338249697L871.9853961640216 348.46569338249697Q872.9354074933534 341.8156140771739 875.310435816683 332.62086156828343Q877.6854641400126 323.42610905939296 881.8926571699111 315.215296855882Q886.0659212237616 306.97055567632333 892.139207936276 301.2365587242847Q898.2124946487903 295.53649074829355 906.7965255888247 295.53649074829355L906.7965255888247 295.53649074829355Q911.3430083791985 295.53649074829355 915.618059361192 300.1847604668101Q919.9270393192329 304.8330301853267 923.8628005407505 312.33133389183877Q927.7985617622682 319.86356657439853 931.0218144867869 328.7868872749085Q934.2450672113058 337.744136951466 936.3825927023025 346.46388379569055Q938.520118193299 355.1497016638675 939.8433482591541 362.30871560990397Q941.1665783250093 369.4677295559404 941.1665783250093 373.30170384931546L941.1665783250093 373.30170384931546Q941.1665783250093 375.6767321726451 940.3183539238202 377.3392519989758Q939.5040584986785 379.0017718253066 936.8575983669683 379.0017718253066L936.8575983669683 379.0017718253066Q934.2450672113058 379.0017718253066 932.820050217308 375.9142350049781L932.820050217308 375.9142350049781Q932.345044552642 374.01421234631437 931.25931731912 370.18023805293933Q930.1735900855978 366.3801927356119 928.9860759239331 361.35870428057206Q927.7985617622682 356.3711448015798 926.2378288640801 350.9764376100168Q924.7110249419396 345.61565939450134 923.2520789718943 340.7298868436518Q921.8270619778965 335.84411429280226 920.6395478162316 332.0101399994272Q919.4520336545669 328.2100946820998 918.9770279899009 326.3100720234361L918.9770279899009 326.3100720234361Q918.264519492902 323.90111472405897 916.703786594714 320.57607507139744Q915.143053696526 317.2171064426884 913.0055282055292 314.1295696223599Q910.8680027145325 311.04203280203126 908.2215425828223 308.87057833498704Q905.6090114271598 306.73305284399044 902.2839717744984 306.73305284399044L902.2839717744984 306.73305284399044Q896.7874776547925 306.73305284399044 892.7160005290847 312.2295469636962Q888.6784523794244 317.6921121073543 885.9302053195714 325.0886288857238Q883.1819582597185 332.48514566409324 881.8926571699111 339.8816624424627Q880.569427104056 347.27817922083204 880.3319242717229 351.1121535142071L880.3319242717229 351.1121535142071Q880.3319242717229 352.7746733405378 880.1962083675327 357.0836532985787Q880.09442143939 361.35870428057206 880.09442143939 366.3801927356119Q880.09442143939 371.36775221460414 880.1962083675327 375.6767321726451Q880.3319242717229 379.985712130686 880.3319242717229 381.6482319570167L880.3319242717229 381.6482319570167Q878.6694044453922 383.54825461568043 877.2104584753469 385.34649034620145Q875.785441481349 387.14472607672246 873.1729103256865 387.14472607672246L873.1729103256865 387.14472607672246Q871.9853961640216 387.14472607672246 870.8996689304994 386.53400450786626Q869.8139416969774 385.92328293901005 869.1014331999785 384.26076311267934L869.1014331999785 384.26076311267934Q868.8639303676456 382.3607404540156 867.8121321101711 378.0517604959747Q866.7264048766489 373.77670951398136 865.301387882651 368.9927238912745Q863.8763708886532 364.2426672446152 862.6888567269885 359.93368728657435Q861.4674135892761 355.6247073285334 860.9924079246101 353.9621875022027L860.9924079246101 353.9621875022027Q860.5174022599441 352.7746733405378 858.7191665294232 348.73712519087746Q856.9548597749498 344.66564806516953 854.7834053079056 339.77987551432Q852.6458798169089 334.89410296347046 850.5083543259121 330.3476201730965Q848.3708288349154 325.8350663587702 847.149385697203 323.42610905939296L847.149385697203 323.42610905939296Q844.5368545415405 318.6760524127337 842.0261103140207 315.4527996882149Q839.5153660865006 312.2295469636962 834.0528009428425 312.2295469636962L834.0528009428425 312.2295469636962Q831.1688379787994 312.2295469636962 828.92952555966 314.3670724546928Q826.656284164473 316.5045979456895 825.095551266285 319.6260637420655Q823.534818368097 322.71360056239416 822.9580257752883 326.0725691911032Q822.3473042064321 329.3976088437647 822.3473042064321 331.77263716709433L822.3473042064321 331.77263716709433L822.3473042064321 392.6072912203806Q822.3473042064321 395.01624851975794 821.2955059489576 396.67876834608865Q820.2097787154354 398.34128817241935 818.0722532244389 398.34128817241935L818.0722532244389 398.34128817241935Q816.884739062774 398.34128817241935 815.4257930927287 397.73056660356315Q814.0007760987309 397.15377401075455 814.0007760987309 395.25375135209083L814.0007760987309 395.25375135209083L799.9202510389908 293.1275334489163Z " fill="#181524a8" transform="matrix(0.9296972582327387,0,0,0.9296972582327387,0,-0.609497634450392)"/></g></svg>